<svg width="23" height="27" viewBox="0 0 23 27" fill="none" xmlns="http://www.w3.org/2000/svg">
<path d="M0 4.41237C0 3.83922 0.367795 3.375 0.821429 3.375H22.1786C22.6304 3.375 23 3.83922 23 4.41237C23 4.98551 22.6304 5.44974 22.1786 5.44974H0.821429C0.367795 5.44974 0 4.98551 0 4.41237ZM0 14.7861C0 14.2155 0.367795 13.7487 0.821429 13.7487H22.1786C22.6304 13.7487 23 14.2155 23 14.7861C23 15.3566 22.6304 15.8234 22.1786 15.8234H0.821429C0.367795 15.8234 0 15.3566 0 14.7861ZM22.1786 26.1971H0.821429C0.367795 26.1971 0 25.7303 0 25.1597C0 24.5892 0.367795 24.1224 0.821429 24.1224H22.1786C22.6304 24.1224 23 24.5892 23 25.1597C23 25.7303 22.6304 26.1971 22.1786 26.1971Z" fill="white"/>
</svg>
