<svg width="28" height="32" viewBox="0 0 28 32" fill="none" xmlns="http://www.w3.org/2000/svg">
<path d="M18 22C18 24.2088 16.2088 26 14 26C11.7912 26 10 24.2088 10 22C10 19.7912 11.7912 18 14 18C16.2088 18 18 19.7938 18 22Z" fill="black"/>
<path opacity="0.4" d="M27.0688 8.06875L21.825 2.825C21.3938 2.395 20.4438 2 19.7563 2H4C1.79063 2 0 3.79063 0 6V26C0 28.2094 1.79063 30 4 30H24C26.2094 30 28 28.2094 28 26V10.2437C28 9.55625 27.6063 8.60625 27.0688 8.06875ZM14 26C11.7912 26 10 24.2088 10 22C10 19.7912 11.7912 18 14 18C16.2088 18 18 19.7912 18 22C18 24.2088 16.2062 26 14 26ZM20 13C20 13.55 19.55 14 19 14H5C4.4475 14 4 13.55 4 13V7C4 6.45 4.4475 6 5 6H19C19.55 6 20 6.45 20 7V13Z" fill="black"/>
</svg>
