<svg width="29" height="23" viewBox="0 0 29 23" fill="none" xmlns="http://www.w3.org/2000/svg">
<path d="M20.1414 17.0928C17.8757 19.3344 14.2009 19.3344 11.9353 17.0928C9.66965 14.8467 9.66965 11.2035 11.9353 8.95741L13.7297 7.17851C13.8747 7.03925 14.1012 7.03925 14.2417 7.17851C14.3867 7.28183 14.3867 7.54687 14.2417 7.68612L12.4473 9.46503C10.4672 11.4326 10.4672 14.6176 12.4473 16.5807C14.432 18.5482 17.6447 18.5482 19.6248 16.5807L25.7782 10.4848C27.7584 8.51718 27.7584 5.33222 25.7782 3.36823C23.7981 1.40335 20.5809 1.40335 18.6007 3.36823L17.8304 4.13056C17.69 4.27071 17.4634 4.27071 17.3184 4.13056C17.1779 3.9904 17.1779 3.76265 17.3184 3.62249L18.0887 2.86017C20.3543 0.614523 24.0247 0.614523 26.2903 2.86017C28.5559 5.10761 28.5559 8.74628 26.2903 10.9924L20.1414 17.0928ZM8.85856 5.90722C11.1242 3.66382 14.799 3.66382 17.0647 5.90722C19.3303 8.15331 19.3303 11.7965 17.0647 14.0426L15.2295 15.8215C15.1253 15.9607 14.8987 15.9607 14.7582 15.8215C14.6132 15.6777 14.6132 15.4127 14.7582 15.3139L16.5526 13.535C18.492 11.5674 18.492 8.38241 16.5526 6.41933C14.5679 4.45265 11.3553 4.45265 9.37512 6.41933L3.22169 12.5152C1.23972 14.4828 1.23972 17.6678 3.22169 19.6309C5.20184 21.5984 8.41903 21.5984 10.3992 19.6309L11.1695 18.8672C11.31 18.7279 11.5411 18.7279 11.6815 18.8672C11.822 19.0109 11.822 19.2355 11.6815 19.3793L10.9112 20.1385C8.64559 22.3846 4.97528 22.3846 2.7092 20.1385C0.443938 17.8924 0.443938 14.2537 2.7092 12.0076L8.85856 5.90722Z" fill="white"/>
</svg>
